<mxfile host="Electron" modified="2024-05-19T00:04:17.051Z" agent="Mozilla/5.0 (Windows NT 10.0; Win64; x64) AppleWebKit/537.36 (KHTML, like Gecko) draw.io/24.2.5 Chrome/120.0.6099.109 Electron/28.1.0 Safari/537.36" etag="Axhnknx0BfJqhaoA6HLO" version="24.2.5" type="device">
  <diagram id="C5RBs43oDa-KdzZeNtuy" name="Page-1">
    <mxGraphModel dx="407" dy="274" grid="0" gridSize="10" guides="1" tooltips="1" connect="1" arrows="1" fold="1" page="1" pageScale="1" pageWidth="827" pageHeight="1169" math="0" shadow="0">
      <root>
        <mxCell id="WIyWlLk6GJQsqaUBKTNV-0" />
        <mxCell id="WIyWlLk6GJQsqaUBKTNV-1" parent="WIyWlLk6GJQsqaUBKTNV-0" />
        <mxCell id="X3-Z9v7MCHhHsnZY6X0o-173" value="..." style="rounded=0;whiteSpace=wrap;html=1;" vertex="1" parent="WIyWlLk6GJQsqaUBKTNV-1">
          <mxGeometry x="270" y="630.62" width="60" height="90" as="geometry" />
        </mxCell>
        <mxCell id="X3-Z9v7MCHhHsnZY6X0o-167" value="..." style="rounded=0;whiteSpace=wrap;html=1;" vertex="1" parent="WIyWlLk6GJQsqaUBKTNV-1">
          <mxGeometry x="170" y="630" width="60" height="90.62" as="geometry" />
        </mxCell>
        <mxCell id="X3-Z9v7MCHhHsnZY6X0o-161" value="..." style="rounded=0;whiteSpace=wrap;html=1;" vertex="1" parent="WIyWlLk6GJQsqaUBKTNV-1">
          <mxGeometry x="70" y="630.62" width="60" height="90" as="geometry" />
        </mxCell>
        <mxCell id="X3-Z9v7MCHhHsnZY6X0o-0" value="" style="shape=process;whiteSpace=wrap;html=1;backgroundOutline=1;rotation=90;" vertex="1" parent="WIyWlLk6GJQsqaUBKTNV-1">
          <mxGeometry x="270" y="340" width="120" height="60" as="geometry" />
        </mxCell>
        <mxCell id="X3-Z9v7MCHhHsnZY6X0o-1" value="" style="rounded=0;whiteSpace=wrap;html=1;" vertex="1" parent="WIyWlLk6GJQsqaUBKTNV-1">
          <mxGeometry x="300" y="320" width="60" height="10" as="geometry" />
        </mxCell>
        <mxCell id="X3-Z9v7MCHhHsnZY6X0o-2" value="" style="rounded=0;whiteSpace=wrap;html=1;" vertex="1" parent="WIyWlLk6GJQsqaUBKTNV-1">
          <mxGeometry x="300" y="330" width="60" height="10" as="geometry" />
        </mxCell>
        <mxCell id="X3-Z9v7MCHhHsnZY6X0o-4" value="空页地址" style="rounded=0;whiteSpace=wrap;html=1;fillColor=#99FFFF;fontSize=5;" vertex="1" parent="WIyWlLk6GJQsqaUBKTNV-1">
          <mxGeometry x="300" y="350" width="60" height="10" as="geometry" />
        </mxCell>
        <mxCell id="X3-Z9v7MCHhHsnZY6X0o-8" value="" style="rounded=0;whiteSpace=wrap;html=1;" vertex="1" parent="WIyWlLk6GJQsqaUBKTNV-1">
          <mxGeometry x="300" y="410" width="60" height="10" as="geometry" />
        </mxCell>
        <mxCell id="X3-Z9v7MCHhHsnZY6X0o-10" value="..." style="rounded=0;whiteSpace=wrap;html=1;fillColor=#99FFFF;" vertex="1" parent="WIyWlLk6GJQsqaUBKTNV-1">
          <mxGeometry x="300" y="370" width="60" height="30" as="geometry" />
        </mxCell>
        <mxCell id="X3-Z9v7MCHhHsnZY6X0o-11" value="新空页地址" style="rounded=0;whiteSpace=wrap;html=1;rotation=-30;fillColor=#99FFFF;fontSize=5;" vertex="1" parent="WIyWlLk6GJQsqaUBKTNV-1">
          <mxGeometry x="370" y="430" width="60" height="10" as="geometry" />
        </mxCell>
        <mxCell id="X3-Z9v7MCHhHsnZY6X0o-13" value="" style="endArrow=blockThin;html=1;rounded=0;exitX=0.5;exitY=0;exitDx=0;exitDy=0;entryX=1;entryY=0.5;entryDx=0;entryDy=0;endFill=1;" edge="1" parent="WIyWlLk6GJQsqaUBKTNV-1" source="X3-Z9v7MCHhHsnZY6X0o-11" target="X3-Z9v7MCHhHsnZY6X0o-8">
          <mxGeometry x="-0.003" y="-3" width="50" height="50" relative="1" as="geometry">
            <mxPoint x="340" y="430" as="sourcePoint" />
            <mxPoint x="390" y="380" as="targetPoint" />
            <mxPoint as="offset" />
          </mxGeometry>
        </mxCell>
        <mxCell id="X3-Z9v7MCHhHsnZY6X0o-15" value="空页地址(头)" style="rounded=0;whiteSpace=wrap;html=1;fillColor=#99FFFF;fontSize=5;" vertex="1" parent="WIyWlLk6GJQsqaUBKTNV-1">
          <mxGeometry x="300" y="340" width="60" height="10" as="geometry" />
        </mxCell>
        <mxCell id="X3-Z9v7MCHhHsnZY6X0o-16" value="空页地址" style="rounded=0;whiteSpace=wrap;html=1;fillColor=#99FFFF;fontSize=5;" vertex="1" parent="WIyWlLk6GJQsqaUBKTNV-1">
          <mxGeometry x="300" y="360" width="60" height="10" as="geometry" />
        </mxCell>
        <mxCell id="X3-Z9v7MCHhHsnZY6X0o-17" value="空页地址" style="rounded=0;whiteSpace=wrap;html=1;fillColor=#99FFFF;fontSize=5;" vertex="1" parent="WIyWlLk6GJQsqaUBKTNV-1">
          <mxGeometry x="300" y="400" width="60" height="10" as="geometry" />
        </mxCell>
        <mxCell id="X3-Z9v7MCHhHsnZY6X0o-18" value="" style="endArrow=blockThin;html=1;rounded=0;exitX=1;exitY=0.5;exitDx=0;exitDy=0;endFill=1;" edge="1" parent="WIyWlLk6GJQsqaUBKTNV-1" source="X3-Z9v7MCHhHsnZY6X0o-15">
          <mxGeometry x="0.1184" y="7" width="50" height="50" relative="1" as="geometry">
            <mxPoint x="360" y="390" as="sourcePoint" />
            <mxPoint x="400" y="330" as="targetPoint" />
            <mxPoint as="offset" />
          </mxGeometry>
        </mxCell>
        <mxCell id="X3-Z9v7MCHhHsnZY6X0o-20" value="&lt;font style=&quot;font-size: 6px;&quot;&gt;插入&lt;/font&gt;" style="text;html=1;align=center;verticalAlign=middle;whiteSpace=wrap;rounded=0;fontSize=6;rotation=0;" vertex="1" parent="WIyWlLk6GJQsqaUBKTNV-1">
          <mxGeometry x="376" y="413" width="20" height="10" as="geometry" />
        </mxCell>
        <mxCell id="X3-Z9v7MCHhHsnZY6X0o-21" value="弹出" style="text;html=1;align=center;verticalAlign=middle;whiteSpace=wrap;rounded=0;fontSize=6;rotation=0;" vertex="1" parent="WIyWlLk6GJQsqaUBKTNV-1">
          <mxGeometry x="365" y="327" width="20" height="10" as="geometry" />
        </mxCell>
        <mxCell id="X3-Z9v7MCHhHsnZY6X0o-22" value="" style="triangle;whiteSpace=wrap;html=1;fillColor=#dae8fc;strokeColor=#6c8ebf;" vertex="1" parent="WIyWlLk6GJQsqaUBKTNV-1">
          <mxGeometry x="260" y="340" width="30" height="10" as="geometry" />
        </mxCell>
        <mxCell id="X3-Z9v7MCHhHsnZY6X0o-23" value="" style="triangle;whiteSpace=wrap;html=1;fillColor=#dae8fc;strokeColor=#6c8ebf;" vertex="1" parent="WIyWlLk6GJQsqaUBKTNV-1">
          <mxGeometry x="260" y="400" width="30" height="10" as="geometry" />
        </mxCell>
        <mxCell id="X3-Z9v7MCHhHsnZY6X0o-24" value="&lt;font style=&quot;font-size: 5px;&quot;&gt;FIFO头指针&lt;/font&gt;" style="text;html=1;align=center;verticalAlign=middle;whiteSpace=wrap;rounded=0;fontSize=5;fillColor=#dae8fc;strokeColor=#6c8ebf;" vertex="1" parent="WIyWlLk6GJQsqaUBKTNV-1">
          <mxGeometry x="230" y="340" width="30" height="10" as="geometry" />
        </mxCell>
        <mxCell id="X3-Z9v7MCHhHsnZY6X0o-25" value="&lt;font style=&quot;font-size: 5px;&quot;&gt;FIFO尾指针&lt;/font&gt;" style="text;html=1;align=center;verticalAlign=middle;whiteSpace=wrap;rounded=0;fontSize=5;fillColor=#dae8fc;strokeColor=#6c8ebf;" vertex="1" parent="WIyWlLk6GJQsqaUBKTNV-1">
          <mxGeometry x="230" y="400" width="30" height="10" as="geometry" />
        </mxCell>
        <mxCell id="X3-Z9v7MCHhHsnZY6X0o-29" value="" style="rounded=0;whiteSpace=wrap;html=1;" vertex="1" parent="WIyWlLk6GJQsqaUBKTNV-1">
          <mxGeometry x="430" y="160" width="80" height="80" as="geometry" />
        </mxCell>
        <mxCell id="X3-Z9v7MCHhHsnZY6X0o-30" value="" style="rounded=0;whiteSpace=wrap;html=1;fillColor=#9AC7BF;" vertex="1" parent="WIyWlLk6GJQsqaUBKTNV-1">
          <mxGeometry x="440" y="170" width="10" height="10" as="geometry" />
        </mxCell>
        <mxCell id="X3-Z9v7MCHhHsnZY6X0o-31" value="" style="whiteSpace=wrap;html=1;aspect=fixed;fillColor=#9999FF;" vertex="1" parent="WIyWlLk6GJQsqaUBKTNV-1">
          <mxGeometry x="470" y="195" width="10" height="10" as="geometry" />
        </mxCell>
        <mxCell id="X3-Z9v7MCHhHsnZY6X0o-32" value="" style="rounded=0;whiteSpace=wrap;html=1;" vertex="1" parent="WIyWlLk6GJQsqaUBKTNV-1">
          <mxGeometry x="520" y="160" width="80" height="80" as="geometry" />
        </mxCell>
        <mxCell id="X3-Z9v7MCHhHsnZY6X0o-33" value="" style="rounded=0;whiteSpace=wrap;html=1;fillColor=#9999FF;" vertex="1" parent="WIyWlLk6GJQsqaUBKTNV-1">
          <mxGeometry x="540" y="170" width="10" height="10" as="geometry" />
        </mxCell>
        <mxCell id="X3-Z9v7MCHhHsnZY6X0o-34" value="" style="rounded=0;whiteSpace=wrap;html=1;fillColor=#9999FF;" vertex="1" parent="WIyWlLk6GJQsqaUBKTNV-1">
          <mxGeometry x="550" y="220" width="10" height="10" as="geometry" />
        </mxCell>
        <mxCell id="X3-Z9v7MCHhHsnZY6X0o-35" value="" style="endArrow=blockThin;html=1;rounded=0;exitX=1;exitY=0.5;exitDx=0;exitDy=0;entryX=0.5;entryY=0;entryDx=0;entryDy=0;endFill=1;" edge="1" parent="WIyWlLk6GJQsqaUBKTNV-1" source="X3-Z9v7MCHhHsnZY6X0o-30" target="X3-Z9v7MCHhHsnZY6X0o-31">
          <mxGeometry width="50" height="50" relative="1" as="geometry">
            <mxPoint x="470" y="280" as="sourcePoint" />
            <mxPoint x="520" y="230" as="targetPoint" />
            <Array as="points">
              <mxPoint x="475" y="175" />
            </Array>
          </mxGeometry>
        </mxCell>
        <mxCell id="X3-Z9v7MCHhHsnZY6X0o-36" value="" style="endArrow=blockThin;html=1;rounded=0;exitX=1;exitY=0.5;exitDx=0;exitDy=0;entryX=0.5;entryY=1;entryDx=0;entryDy=0;endFill=1;" edge="1" parent="WIyWlLk6GJQsqaUBKTNV-1" source="X3-Z9v7MCHhHsnZY6X0o-31" target="X3-Z9v7MCHhHsnZY6X0o-33">
          <mxGeometry width="50" height="50" relative="1" as="geometry">
            <mxPoint x="470" y="280" as="sourcePoint" />
            <mxPoint x="520" y="230" as="targetPoint" />
            <Array as="points">
              <mxPoint x="545" y="200" />
            </Array>
          </mxGeometry>
        </mxCell>
        <mxCell id="X3-Z9v7MCHhHsnZY6X0o-37" value="" style="endArrow=blockThin;html=1;rounded=0;exitX=1;exitY=0.5;exitDx=0;exitDy=0;entryX=0.5;entryY=0;entryDx=0;entryDy=0;endFill=1;" edge="1" parent="WIyWlLk6GJQsqaUBKTNV-1" source="X3-Z9v7MCHhHsnZY6X0o-33" target="X3-Z9v7MCHhHsnZY6X0o-34">
          <mxGeometry width="50" height="50" relative="1" as="geometry">
            <mxPoint x="470" y="280" as="sourcePoint" />
            <mxPoint x="520" y="230" as="targetPoint" />
            <Array as="points">
              <mxPoint x="555" y="175" />
            </Array>
          </mxGeometry>
        </mxCell>
        <mxCell id="X3-Z9v7MCHhHsnZY6X0o-39" value="" style="rounded=0;whiteSpace=wrap;html=1;" vertex="1" parent="WIyWlLk6GJQsqaUBKTNV-1">
          <mxGeometry x="610" y="160" width="80" height="80" as="geometry" />
        </mxCell>
        <mxCell id="X3-Z9v7MCHhHsnZY6X0o-40" value="" style="rounded=0;whiteSpace=wrap;html=1;fillColor=#FF99CC;" vertex="1" parent="WIyWlLk6GJQsqaUBKTNV-1">
          <mxGeometry x="660" y="195" width="10" height="10" as="geometry" />
        </mxCell>
        <mxCell id="X3-Z9v7MCHhHsnZY6X0o-38" value="" style="endArrow=blockThin;html=1;rounded=0;exitX=1;exitY=0.5;exitDx=0;exitDy=0;entryX=0.5;entryY=1;entryDx=0;entryDy=0;endFill=1;" edge="1" parent="WIyWlLk6GJQsqaUBKTNV-1" source="X3-Z9v7MCHhHsnZY6X0o-34" target="X3-Z9v7MCHhHsnZY6X0o-40">
          <mxGeometry width="50" height="50" relative="1" as="geometry">
            <mxPoint x="470" y="220" as="sourcePoint" />
            <mxPoint x="540" y="290" as="targetPoint" />
            <Array as="points">
              <mxPoint x="665" y="225" />
            </Array>
          </mxGeometry>
        </mxCell>
        <mxCell id="X3-Z9v7MCHhHsnZY6X0o-42" value="" style="triangle;whiteSpace=wrap;html=1;rotation=0;fillColor=#9AC7BF;" vertex="1" parent="WIyWlLk6GJQsqaUBKTNV-1">
          <mxGeometry x="414" y="170.63" width="26" height="8.75" as="geometry" />
        </mxCell>
        <mxCell id="X3-Z9v7MCHhHsnZY6X0o-43" value="head" style="rounded=0;whiteSpace=wrap;html=1;fontSize=6;fillColor=#9AC7BF;fontStyle=1" vertex="1" parent="WIyWlLk6GJQsqaUBKTNV-1">
          <mxGeometry x="390" y="170.63" width="24" height="8.75" as="geometry" />
        </mxCell>
        <mxCell id="X3-Z9v7MCHhHsnZY6X0o-44" value="" style="triangle;whiteSpace=wrap;html=1;rotation=-180;fillColor=#FF99CC;" vertex="1" parent="WIyWlLk6GJQsqaUBKTNV-1">
          <mxGeometry x="670" y="195.63" width="26" height="8.75" as="geometry" />
        </mxCell>
        <mxCell id="X3-Z9v7MCHhHsnZY6X0o-45" value="tail" style="rounded=0;whiteSpace=wrap;html=1;fontSize=6;fillColor=#FF99CC;fontStyle=1" vertex="1" parent="WIyWlLk6GJQsqaUBKTNV-1">
          <mxGeometry x="696" y="195.63" width="24" height="8.75" as="geometry" />
        </mxCell>
        <mxCell id="X3-Z9v7MCHhHsnZY6X0o-46" value="跳转表#k" style="text;html=1;align=center;verticalAlign=middle;whiteSpace=wrap;rounded=0;fontSize=7;" vertex="1" parent="WIyWlLk6GJQsqaUBKTNV-1">
          <mxGeometry x="470" y="160" width="40" height="20" as="geometry" />
        </mxCell>
        <mxCell id="X3-Z9v7MCHhHsnZY6X0o-47" value="跳转表#m" style="text;html=1;align=center;verticalAlign=middle;whiteSpace=wrap;rounded=0;fontSize=7;" vertex="1" parent="WIyWlLk6GJQsqaUBKTNV-1">
          <mxGeometry x="560" y="160" width="40" height="20" as="geometry" />
        </mxCell>
        <mxCell id="X3-Z9v7MCHhHsnZY6X0o-48" value="跳转表#n" style="text;html=1;align=center;verticalAlign=middle;whiteSpace=wrap;rounded=0;fontSize=7;" vertex="1" parent="WIyWlLk6GJQsqaUBKTNV-1">
          <mxGeometry x="650" y="160" width="40" height="20" as="geometry" />
        </mxCell>
        <mxCell id="X3-Z9v7MCHhHsnZY6X0o-115" value="" style="rounded=0;whiteSpace=wrap;html=1;" vertex="1" parent="WIyWlLk6GJQsqaUBKTNV-1">
          <mxGeometry x="480" y="600.62" width="80" height="80" as="geometry" />
        </mxCell>
        <mxCell id="X3-Z9v7MCHhHsnZY6X0o-116" value="" style="rounded=0;whiteSpace=wrap;html=1;fillColor=#9AC7BF;" vertex="1" parent="WIyWlLk6GJQsqaUBKTNV-1">
          <mxGeometry x="490" y="610.62" width="10" height="10" as="geometry" />
        </mxCell>
        <mxCell id="X3-Z9v7MCHhHsnZY6X0o-117" value="" style="whiteSpace=wrap;html=1;aspect=fixed;fillColor=#9999FF;" vertex="1" parent="WIyWlLk6GJQsqaUBKTNV-1">
          <mxGeometry x="520" y="635.62" width="10" height="10" as="geometry" />
        </mxCell>
        <mxCell id="X3-Z9v7MCHhHsnZY6X0o-118" value="" style="rounded=0;whiteSpace=wrap;html=1;" vertex="1" parent="WIyWlLk6GJQsqaUBKTNV-1">
          <mxGeometry x="570" y="600.62" width="80" height="80" as="geometry" />
        </mxCell>
        <mxCell id="X3-Z9v7MCHhHsnZY6X0o-119" value="" style="rounded=0;whiteSpace=wrap;html=1;fillColor=#9999FF;" vertex="1" parent="WIyWlLk6GJQsqaUBKTNV-1">
          <mxGeometry x="590" y="610.62" width="10" height="10" as="geometry" />
        </mxCell>
        <mxCell id="X3-Z9v7MCHhHsnZY6X0o-120" value="" style="rounded=0;whiteSpace=wrap;html=1;fillColor=#9999FF;" vertex="1" parent="WIyWlLk6GJQsqaUBKTNV-1">
          <mxGeometry x="600" y="660.62" width="10" height="10" as="geometry" />
        </mxCell>
        <mxCell id="X3-Z9v7MCHhHsnZY6X0o-121" value="" style="endArrow=blockThin;html=1;rounded=0;exitX=1;exitY=0.5;exitDx=0;exitDy=0;entryX=0.5;entryY=0;entryDx=0;entryDy=0;endFill=1;" edge="1" parent="WIyWlLk6GJQsqaUBKTNV-1" source="X3-Z9v7MCHhHsnZY6X0o-116" target="X3-Z9v7MCHhHsnZY6X0o-117">
          <mxGeometry width="50" height="50" relative="1" as="geometry">
            <mxPoint x="520" y="720.62" as="sourcePoint" />
            <mxPoint x="570" y="670.62" as="targetPoint" />
            <Array as="points">
              <mxPoint x="525" y="615.62" />
            </Array>
          </mxGeometry>
        </mxCell>
        <mxCell id="X3-Z9v7MCHhHsnZY6X0o-122" value="" style="endArrow=blockThin;html=1;rounded=0;exitX=1;exitY=0.5;exitDx=0;exitDy=0;entryX=0.5;entryY=1;entryDx=0;entryDy=0;endFill=1;" edge="1" parent="WIyWlLk6GJQsqaUBKTNV-1" source="X3-Z9v7MCHhHsnZY6X0o-117" target="X3-Z9v7MCHhHsnZY6X0o-119">
          <mxGeometry width="50" height="50" relative="1" as="geometry">
            <mxPoint x="520" y="720.62" as="sourcePoint" />
            <mxPoint x="570" y="670.62" as="targetPoint" />
            <Array as="points">
              <mxPoint x="595" y="640.62" />
            </Array>
          </mxGeometry>
        </mxCell>
        <mxCell id="X3-Z9v7MCHhHsnZY6X0o-123" value="" style="endArrow=blockThin;html=1;rounded=0;exitX=1;exitY=0.5;exitDx=0;exitDy=0;entryX=0.5;entryY=0;entryDx=0;entryDy=0;endFill=1;" edge="1" parent="WIyWlLk6GJQsqaUBKTNV-1" source="X3-Z9v7MCHhHsnZY6X0o-119" target="X3-Z9v7MCHhHsnZY6X0o-120">
          <mxGeometry width="50" height="50" relative="1" as="geometry">
            <mxPoint x="520" y="720.62" as="sourcePoint" />
            <mxPoint x="570" y="670.62" as="targetPoint" />
            <Array as="points">
              <mxPoint x="605" y="615.62" />
            </Array>
          </mxGeometry>
        </mxCell>
        <mxCell id="X3-Z9v7MCHhHsnZY6X0o-124" value="" style="rounded=0;whiteSpace=wrap;html=1;" vertex="1" parent="WIyWlLk6GJQsqaUBKTNV-1">
          <mxGeometry x="660" y="600.62" width="80" height="80" as="geometry" />
        </mxCell>
        <mxCell id="X3-Z9v7MCHhHsnZY6X0o-125" value="" style="rounded=0;whiteSpace=wrap;html=1;fillColor=#FF99CC;gradientColor=#9999FF;" vertex="1" parent="WIyWlLk6GJQsqaUBKTNV-1">
          <mxGeometry x="710" y="635.62" width="10" height="10" as="geometry" />
        </mxCell>
        <mxCell id="X3-Z9v7MCHhHsnZY6X0o-126" value="" style="endArrow=blockThin;html=1;rounded=0;exitX=1;exitY=0.5;exitDx=0;exitDy=0;entryX=0.5;entryY=1;entryDx=0;entryDy=0;endFill=1;" edge="1" parent="WIyWlLk6GJQsqaUBKTNV-1" source="X3-Z9v7MCHhHsnZY6X0o-120" target="X3-Z9v7MCHhHsnZY6X0o-125">
          <mxGeometry width="50" height="50" relative="1" as="geometry">
            <mxPoint x="520" y="660.62" as="sourcePoint" />
            <mxPoint x="590" y="730.62" as="targetPoint" />
            <Array as="points">
              <mxPoint x="715" y="665.62" />
            </Array>
          </mxGeometry>
        </mxCell>
        <mxCell id="X3-Z9v7MCHhHsnZY6X0o-127" value="" style="triangle;whiteSpace=wrap;html=1;rotation=0;fillColor=#9AC7BF;" vertex="1" parent="WIyWlLk6GJQsqaUBKTNV-1">
          <mxGeometry x="464" y="611.25" width="26" height="8.75" as="geometry" />
        </mxCell>
        <mxCell id="X3-Z9v7MCHhHsnZY6X0o-128" value="head" style="rounded=0;whiteSpace=wrap;html=1;fontSize=6;fillColor=#9AC7BF;fontStyle=1" vertex="1" parent="WIyWlLk6GJQsqaUBKTNV-1">
          <mxGeometry x="440" y="611.25" width="24" height="8.75" as="geometry" />
        </mxCell>
        <mxCell id="X3-Z9v7MCHhHsnZY6X0o-129" value="跳转表#k" style="text;html=1;align=center;verticalAlign=middle;whiteSpace=wrap;rounded=0;fontSize=7;" vertex="1" parent="WIyWlLk6GJQsqaUBKTNV-1">
          <mxGeometry x="520" y="600" width="40" height="20" as="geometry" />
        </mxCell>
        <mxCell id="X3-Z9v7MCHhHsnZY6X0o-130" value="" style="rounded=0;whiteSpace=wrap;html=1;" vertex="1" parent="WIyWlLk6GJQsqaUBKTNV-1">
          <mxGeometry x="660" y="700.62" width="80" height="80" as="geometry" />
        </mxCell>
        <mxCell id="X3-Z9v7MCHhHsnZY6X0o-131" value="" style="rounded=0;whiteSpace=wrap;html=1;fillColor=#9AC7BF;gradientColor=#9999FF;gradientDirection=north;" vertex="1" parent="WIyWlLk6GJQsqaUBKTNV-1">
          <mxGeometry x="670" y="710.62" width="10" height="10" as="geometry" />
        </mxCell>
        <mxCell id="X3-Z9v7MCHhHsnZY6X0o-132" value="" style="rounded=0;whiteSpace=wrap;html=1;fillColor=#9999FF;" vertex="1" parent="WIyWlLk6GJQsqaUBKTNV-1">
          <mxGeometry x="680" y="710.62" width="10" height="10" as="geometry" />
        </mxCell>
        <mxCell id="X3-Z9v7MCHhHsnZY6X0o-133" value="" style="rounded=0;whiteSpace=wrap;html=1;fillColor=#9999FF;" vertex="1" parent="WIyWlLk6GJQsqaUBKTNV-1">
          <mxGeometry x="690" y="710.62" width="10" height="10" as="geometry" />
        </mxCell>
        <mxCell id="X3-Z9v7MCHhHsnZY6X0o-134" value="" style="rounded=0;whiteSpace=wrap;html=1;fillColor=#9999FF;" vertex="1" parent="WIyWlLk6GJQsqaUBKTNV-1">
          <mxGeometry x="700" y="710.62" width="10" height="10" as="geometry" />
        </mxCell>
        <mxCell id="X3-Z9v7MCHhHsnZY6X0o-135" value="" style="rounded=0;whiteSpace=wrap;html=1;fillColor=#9999FF;" vertex="1" parent="WIyWlLk6GJQsqaUBKTNV-1">
          <mxGeometry x="690" y="730.62" width="10" height="10" as="geometry" />
        </mxCell>
        <mxCell id="X3-Z9v7MCHhHsnZY6X0o-136" value="" style="rounded=0;whiteSpace=wrap;html=1;fillColor=#9999FF;" vertex="1" parent="WIyWlLk6GJQsqaUBKTNV-1">
          <mxGeometry x="700" y="730.62" width="10" height="10" as="geometry" />
        </mxCell>
        <mxCell id="X3-Z9v7MCHhHsnZY6X0o-137" value="" style="rounded=0;whiteSpace=wrap;html=1;fillColor=#9999FF;" vertex="1" parent="WIyWlLk6GJQsqaUBKTNV-1">
          <mxGeometry x="710" y="750.62" width="10" height="10" as="geometry" />
        </mxCell>
        <mxCell id="X3-Z9v7MCHhHsnZY6X0o-138" value="" style="rounded=0;whiteSpace=wrap;html=1;fillColor=#FF99CC;" vertex="1" parent="WIyWlLk6GJQsqaUBKTNV-1">
          <mxGeometry x="720" y="750.62" width="10" height="10" as="geometry" />
        </mxCell>
        <mxCell id="X3-Z9v7MCHhHsnZY6X0o-139" value="" style="endArrow=blockThin;html=1;rounded=0;exitX=1;exitY=0.5;exitDx=0;exitDy=0;entryX=1;entryY=0.5;entryDx=0;entryDy=0;endFill=1;" edge="1" parent="WIyWlLk6GJQsqaUBKTNV-1" source="X3-Z9v7MCHhHsnZY6X0o-134" target="X3-Z9v7MCHhHsnZY6X0o-136">
          <mxGeometry width="50" height="50" relative="1" as="geometry">
            <mxPoint x="690" y="740.62" as="sourcePoint" />
            <mxPoint x="740" y="690.62" as="targetPoint" />
            <Array as="points">
              <mxPoint x="730" y="715.62" />
              <mxPoint x="730" y="735.62" />
            </Array>
          </mxGeometry>
        </mxCell>
        <mxCell id="X3-Z9v7MCHhHsnZY6X0o-140" value="" style="endArrow=blockThin;html=1;rounded=0;exitX=0;exitY=0.5;exitDx=0;exitDy=0;entryX=0;entryY=0.5;entryDx=0;entryDy=0;endFill=1;" edge="1" parent="WIyWlLk6GJQsqaUBKTNV-1" source="X3-Z9v7MCHhHsnZY6X0o-135" target="X3-Z9v7MCHhHsnZY6X0o-137">
          <mxGeometry width="50" height="50" relative="1" as="geometry">
            <mxPoint x="720" y="725.62" as="sourcePoint" />
            <mxPoint x="720" y="745.62" as="targetPoint" />
            <Array as="points">
              <mxPoint x="680" y="735.62" />
              <mxPoint x="680" y="755.62" />
            </Array>
          </mxGeometry>
        </mxCell>
        <mxCell id="X3-Z9v7MCHhHsnZY6X0o-141" value="" style="endArrow=blockThin;html=1;rounded=0;exitX=0;exitY=0.5;exitDx=0;exitDy=0;entryX=1;entryY=0.5;entryDx=0;entryDy=0;endFill=1;" edge="1" parent="WIyWlLk6GJQsqaUBKTNV-1" source="X3-Z9v7MCHhHsnZY6X0o-131" target="X3-Z9v7MCHhHsnZY6X0o-134">
          <mxGeometry width="50" height="50" relative="1" as="geometry">
            <mxPoint x="720" y="760.62" as="sourcePoint" />
            <mxPoint x="770" y="710.62" as="targetPoint" />
          </mxGeometry>
        </mxCell>
        <mxCell id="X3-Z9v7MCHhHsnZY6X0o-142" value="" style="endArrow=blockThin;html=1;rounded=0;exitX=1;exitY=0.5;exitDx=0;exitDy=0;entryX=0;entryY=0.5;entryDx=0;entryDy=0;endFill=1;" edge="1" parent="WIyWlLk6GJQsqaUBKTNV-1" source="X3-Z9v7MCHhHsnZY6X0o-136" target="X3-Z9v7MCHhHsnZY6X0o-135">
          <mxGeometry width="50" height="50" relative="1" as="geometry">
            <mxPoint x="680" y="725.62" as="sourcePoint" />
            <mxPoint x="720" y="725.62" as="targetPoint" />
          </mxGeometry>
        </mxCell>
        <mxCell id="X3-Z9v7MCHhHsnZY6X0o-143" value="" style="endArrow=blockThin;html=1;rounded=0;exitX=0;exitY=0.5;exitDx=0;exitDy=0;entryX=1;entryY=0.5;entryDx=0;entryDy=0;endFill=1;" edge="1" parent="WIyWlLk6GJQsqaUBKTNV-1" source="X3-Z9v7MCHhHsnZY6X0o-137" target="X3-Z9v7MCHhHsnZY6X0o-138">
          <mxGeometry width="50" height="50" relative="1" as="geometry">
            <mxPoint x="640" y="735.62" as="sourcePoint" />
            <mxPoint x="680" y="735.62" as="targetPoint" />
          </mxGeometry>
        </mxCell>
        <mxCell id="X3-Z9v7MCHhHsnZY6X0o-144" value="" style="triangle;whiteSpace=wrap;html=1;rotation=-180;fillColor=#FF99CC;" vertex="1" parent="WIyWlLk6GJQsqaUBKTNV-1">
          <mxGeometry x="730" y="751.25" width="26" height="8.75" as="geometry" />
        </mxCell>
        <mxCell id="X3-Z9v7MCHhHsnZY6X0o-145" value="new tail" style="rounded=0;whiteSpace=wrap;html=1;fontSize=6;fillColor=#FF99CC;fontStyle=1" vertex="1" parent="WIyWlLk6GJQsqaUBKTNV-1">
          <mxGeometry x="756" y="751.25" width="24" height="8.75" as="geometry" />
        </mxCell>
        <mxCell id="X3-Z9v7MCHhHsnZY6X0o-146" style="edgeStyle=orthogonalEdgeStyle;rounded=0;orthogonalLoop=1;jettySize=auto;html=1;exitX=1;exitY=0.5;exitDx=0;exitDy=0;entryX=0.5;entryY=0;entryDx=0;entryDy=0;endArrow=blockThin;endFill=1;" edge="1" parent="WIyWlLk6GJQsqaUBKTNV-1" source="X3-Z9v7MCHhHsnZY6X0o-125" target="X3-Z9v7MCHhHsnZY6X0o-131">
          <mxGeometry relative="1" as="geometry">
            <Array as="points">
              <mxPoint x="730" y="640.62" />
              <mxPoint x="730" y="690.62" />
              <mxPoint x="675" y="690.62" />
            </Array>
          </mxGeometry>
        </mxCell>
        <mxCell id="X3-Z9v7MCHhHsnZY6X0o-147" value="" style="shape=curlyBracket;whiteSpace=wrap;html=1;rounded=1;labelPosition=left;verticalLabelPosition=middle;align=right;verticalAlign=middle;size=0.25;" vertex="1" parent="WIyWlLk6GJQsqaUBKTNV-1">
          <mxGeometry x="647" y="710.62" width="20" height="50" as="geometry" />
        </mxCell>
        <mxCell id="X3-Z9v7MCHhHsnZY6X0o-148" value="数据包断链" style="text;html=1;align=center;verticalAlign=middle;whiteSpace=wrap;rounded=0;fontSize=7;fontStyle=1" vertex="1" parent="WIyWlLk6GJQsqaUBKTNV-1">
          <mxGeometry x="607" y="725.62" width="40" height="20" as="geometry" />
        </mxCell>
        <mxCell id="X3-Z9v7MCHhHsnZY6X0o-149" value="断链拼接" style="text;html=1;align=center;verticalAlign=middle;whiteSpace=wrap;rounded=0;fontSize=7;fontStyle=1" vertex="1" parent="WIyWlLk6GJQsqaUBKTNV-1">
          <mxGeometry x="730" y="680.62" width="40" height="20" as="geometry" />
        </mxCell>
        <mxCell id="X3-Z9v7MCHhHsnZY6X0o-150" value="跳转表#m" style="text;html=1;align=center;verticalAlign=middle;whiteSpace=wrap;rounded=0;fontSize=7;" vertex="1" parent="WIyWlLk6GJQsqaUBKTNV-1">
          <mxGeometry x="610" y="600" width="40" height="20" as="geometry" />
        </mxCell>
        <mxCell id="X3-Z9v7MCHhHsnZY6X0o-151" value="跳转表#n" style="text;html=1;align=center;verticalAlign=middle;whiteSpace=wrap;rounded=0;fontSize=7;" vertex="1" parent="WIyWlLk6GJQsqaUBKTNV-1">
          <mxGeometry x="700" y="600" width="40" height="20" as="geometry" />
        </mxCell>
        <mxCell id="X3-Z9v7MCHhHsnZY6X0o-152" value="跳转表#p" style="text;html=1;align=center;verticalAlign=middle;whiteSpace=wrap;rounded=0;fontSize=7;" vertex="1" parent="WIyWlLk6GJQsqaUBKTNV-1">
          <mxGeometry x="660" y="760.62" width="40" height="20" as="geometry" />
        </mxCell>
        <mxCell id="X3-Z9v7MCHhHsnZY6X0o-156" value="" style="rounded=0;whiteSpace=wrap;html=1;rotation=90;fillColor=none;" vertex="1" parent="WIyWlLk6GJQsqaUBKTNV-1">
          <mxGeometry x="40" y="630.62" width="120" height="60" as="geometry" />
        </mxCell>
        <mxCell id="X3-Z9v7MCHhHsnZY6X0o-157" value="端口k请求5页" style="rounded=0;whiteSpace=wrap;html=1;fontSize=6;fillColor=#A9C4EB;" vertex="1" parent="WIyWlLk6GJQsqaUBKTNV-1">
          <mxGeometry x="70" y="600.62" width="60" height="10" as="geometry" />
        </mxCell>
        <mxCell id="X3-Z9v7MCHhHsnZY6X0o-162" value="端口m请求31页" style="rounded=0;whiteSpace=wrap;html=1;fontSize=6;" vertex="1" parent="WIyWlLk6GJQsqaUBKTNV-1">
          <mxGeometry x="70" y="610.62" width="60" height="10" as="geometry" />
        </mxCell>
        <mxCell id="X3-Z9v7MCHhHsnZY6X0o-163" value="端口n请求16页" style="rounded=0;whiteSpace=wrap;html=1;fontSize=6;" vertex="1" parent="WIyWlLk6GJQsqaUBKTNV-1">
          <mxGeometry x="70" y="620.62" width="60" height="10" as="geometry" />
        </mxCell>
        <mxCell id="X3-Z9v7MCHhHsnZY6X0o-165" value="" style="rounded=0;whiteSpace=wrap;html=1;rotation=90;fillColor=none;" vertex="1" parent="WIyWlLk6GJQsqaUBKTNV-1">
          <mxGeometry x="140" y="630.62" width="120" height="60" as="geometry" />
        </mxCell>
        <mxCell id="X3-Z9v7MCHhHsnZY6X0o-166" value="端口k请求4页" style="rounded=0;whiteSpace=wrap;html=1;fontSize=6;fillColor=none;" vertex="1" parent="WIyWlLk6GJQsqaUBKTNV-1">
          <mxGeometry x="170" y="600.62" width="60" height="10" as="geometry" />
        </mxCell>
        <mxCell id="X3-Z9v7MCHhHsnZY6X0o-168" value="端口m请求31页" style="rounded=0;whiteSpace=wrap;html=1;fontSize=6;fillColor=#A9C4EB;" vertex="1" parent="WIyWlLk6GJQsqaUBKTNV-1">
          <mxGeometry x="170" y="610.62" width="60" height="10" as="geometry" />
        </mxCell>
        <mxCell id="X3-Z9v7MCHhHsnZY6X0o-169" value="端口n请求16页" style="rounded=0;whiteSpace=wrap;html=1;fontSize=6;" vertex="1" parent="WIyWlLk6GJQsqaUBKTNV-1">
          <mxGeometry x="170" y="620.62" width="60" height="10" as="geometry" />
        </mxCell>
        <mxCell id="X3-Z9v7MCHhHsnZY6X0o-171" value="" style="rounded=0;whiteSpace=wrap;html=1;rotation=90;fillColor=none;" vertex="1" parent="WIyWlLk6GJQsqaUBKTNV-1">
          <mxGeometry x="240" y="630.62" width="120" height="60" as="geometry" />
        </mxCell>
        <mxCell id="X3-Z9v7MCHhHsnZY6X0o-172" value="端口k请求4页" style="rounded=0;whiteSpace=wrap;html=1;fontSize=6;fillColor=none;" vertex="1" parent="WIyWlLk6GJQsqaUBKTNV-1">
          <mxGeometry x="270" y="600.62" width="60" height="10" as="geometry" />
        </mxCell>
        <mxCell id="X3-Z9v7MCHhHsnZY6X0o-174" value="端口m请求30页" style="rounded=0;whiteSpace=wrap;html=1;fontSize=6;fillColor=none;" vertex="1" parent="WIyWlLk6GJQsqaUBKTNV-1">
          <mxGeometry x="270" y="610.62" width="60" height="10" as="geometry" />
        </mxCell>
        <mxCell id="X3-Z9v7MCHhHsnZY6X0o-175" value="端口n请求16页" style="rounded=0;whiteSpace=wrap;html=1;fontSize=6;fillColor=#A9C4EB;" vertex="1" parent="WIyWlLk6GJQsqaUBKTNV-1">
          <mxGeometry x="270" y="620.62" width="60" height="10" as="geometry" />
        </mxCell>
        <mxCell id="X3-Z9v7MCHhHsnZY6X0o-177" value="" style="endArrow=blockThin;html=1;rounded=0;exitX=0.5;exitY=0;exitDx=0;exitDy=0;entryX=0.5;entryY=1;entryDx=0;entryDy=0;endFill=1;" edge="1" parent="WIyWlLk6GJQsqaUBKTNV-1" source="X3-Z9v7MCHhHsnZY6X0o-156" target="X3-Z9v7MCHhHsnZY6X0o-165">
          <mxGeometry width="50" height="50" relative="1" as="geometry">
            <mxPoint x="150" y="670.62" as="sourcePoint" />
            <mxPoint x="170" y="660.62" as="targetPoint" />
          </mxGeometry>
        </mxCell>
        <mxCell id="X3-Z9v7MCHhHsnZY6X0o-178" value="" style="endArrow=blockThin;html=1;rounded=0;exitX=0.5;exitY=0;exitDx=0;exitDy=0;entryX=0.5;entryY=1;entryDx=0;entryDy=0;endFill=1;" edge="1" parent="WIyWlLk6GJQsqaUBKTNV-1" source="X3-Z9v7MCHhHsnZY6X0o-165" target="X3-Z9v7MCHhHsnZY6X0o-171">
          <mxGeometry width="50" height="50" relative="1" as="geometry">
            <mxPoint x="240" y="666.1" as="sourcePoint" />
            <mxPoint x="280" y="666.1" as="targetPoint" />
          </mxGeometry>
        </mxCell>
        <mxCell id="X3-Z9v7MCHhHsnZY6X0o-182" value="处理端口k&lt;br&gt;请求一页" style="text;html=1;align=center;verticalAlign=middle;whiteSpace=wrap;rounded=0;fontSize=6;fontStyle=1" vertex="1" parent="WIyWlLk6GJQsqaUBKTNV-1">
          <mxGeometry x="130" y="636.86" width="40" height="24.38" as="geometry" />
        </mxCell>
        <mxCell id="X3-Z9v7MCHhHsnZY6X0o-183" value="处理端口m&lt;br&gt;请求一页" style="text;html=1;align=center;verticalAlign=middle;whiteSpace=wrap;rounded=0;fontSize=6;fontStyle=1" vertex="1" parent="WIyWlLk6GJQsqaUBKTNV-1">
          <mxGeometry x="230" y="636.86" width="40" height="24.38" as="geometry" />
        </mxCell>
        <mxCell id="X3-Z9v7MCHhHsnZY6X0o-184" value="轮询独热码" style="rounded=0;whiteSpace=wrap;html=1;fontSize=7;fontStyle=1;fillColor=#A9C4EB;" vertex="1" parent="WIyWlLk6GJQsqaUBKTNV-1">
          <mxGeometry x="30" y="570.62" width="50" height="15" as="geometry" />
        </mxCell>
        <mxCell id="X3-Z9v7MCHhHsnZY6X0o-185" value="" style="endArrow=blockThin;html=1;rounded=0;exitX=0.5;exitY=1;exitDx=0;exitDy=0;entryX=0;entryY=0.5;entryDx=0;entryDy=0;endFill=1;" edge="1" parent="WIyWlLk6GJQsqaUBKTNV-1" source="X3-Z9v7MCHhHsnZY6X0o-184" target="X3-Z9v7MCHhHsnZY6X0o-157">
          <mxGeometry width="50" height="50" relative="1" as="geometry">
            <mxPoint x="160" y="660.62" as="sourcePoint" />
            <mxPoint x="210" y="610.62" as="targetPoint" />
            <Array as="points">
              <mxPoint x="55" y="605.62" />
            </Array>
          </mxGeometry>
        </mxCell>
        <mxCell id="X3-Z9v7MCHhHsnZY6X0o-186" value="轮询独热码" style="rounded=0;whiteSpace=wrap;html=1;fontSize=7;fontStyle=1;fillColor=#A9C4EB;" vertex="1" parent="WIyWlLk6GJQsqaUBKTNV-1">
          <mxGeometry x="130" y="570.62" width="50" height="15" as="geometry" />
        </mxCell>
        <mxCell id="X3-Z9v7MCHhHsnZY6X0o-187" value="" style="endArrow=blockThin;html=1;rounded=0;exitX=0.5;exitY=1;exitDx=0;exitDy=0;entryX=0;entryY=0.5;entryDx=0;entryDy=0;endFill=1;" edge="1" parent="WIyWlLk6GJQsqaUBKTNV-1" source="X3-Z9v7MCHhHsnZY6X0o-186" target="X3-Z9v7MCHhHsnZY6X0o-168">
          <mxGeometry width="50" height="50" relative="1" as="geometry">
            <mxPoint x="260" y="660.62" as="sourcePoint" />
            <mxPoint x="170" y="605.62" as="targetPoint" />
            <Array as="points">
              <mxPoint x="155" y="615.62" />
            </Array>
          </mxGeometry>
        </mxCell>
        <mxCell id="X3-Z9v7MCHhHsnZY6X0o-188" value="轮询独热码" style="rounded=0;whiteSpace=wrap;html=1;fontSize=7;fontStyle=1;fillColor=#A9C4EB;" vertex="1" parent="WIyWlLk6GJQsqaUBKTNV-1">
          <mxGeometry x="230" y="570.62" width="50" height="15" as="geometry" />
        </mxCell>
        <mxCell id="X3-Z9v7MCHhHsnZY6X0o-189" value="" style="endArrow=blockThin;html=1;rounded=0;exitX=0.5;exitY=1;exitDx=0;exitDy=0;entryX=0;entryY=0.5;entryDx=0;entryDy=0;endFill=1;" edge="1" parent="WIyWlLk6GJQsqaUBKTNV-1" source="X3-Z9v7MCHhHsnZY6X0o-188" target="X3-Z9v7MCHhHsnZY6X0o-175">
          <mxGeometry width="50" height="50" relative="1" as="geometry">
            <mxPoint x="360" y="660.62" as="sourcePoint" />
            <mxPoint x="270" y="615.62" as="targetPoint" />
            <Array as="points">
              <mxPoint x="255" y="625.62" />
            </Array>
          </mxGeometry>
        </mxCell>
        <mxCell id="X3-Z9v7MCHhHsnZY6X0o-190" value="" style="endArrow=blockThin;html=1;rounded=0;exitX=1;exitY=0.5;exitDx=0;exitDy=0;entryX=0;entryY=0.5;entryDx=0;entryDy=0;endFill=1;" edge="1" parent="WIyWlLk6GJQsqaUBKTNV-1" source="X3-Z9v7MCHhHsnZY6X0o-184" target="X3-Z9v7MCHhHsnZY6X0o-186">
          <mxGeometry width="50" height="50" relative="1" as="geometry">
            <mxPoint x="160" y="660.62" as="sourcePoint" />
            <mxPoint x="210" y="610.62" as="targetPoint" />
          </mxGeometry>
        </mxCell>
        <mxCell id="X3-Z9v7MCHhHsnZY6X0o-191" value="" style="endArrow=blockThin;html=1;rounded=0;exitX=1;exitY=0.5;exitDx=0;exitDy=0;entryX=0;entryY=0.5;entryDx=0;entryDy=0;endFill=1;" edge="1" parent="WIyWlLk6GJQsqaUBKTNV-1" source="X3-Z9v7MCHhHsnZY6X0o-186" target="X3-Z9v7MCHhHsnZY6X0o-188">
          <mxGeometry width="50" height="50" relative="1" as="geometry">
            <mxPoint x="180" y="577.95" as="sourcePoint" />
            <mxPoint x="230" y="577.95" as="targetPoint" />
          </mxGeometry>
        </mxCell>
        <mxCell id="X3-Z9v7MCHhHsnZY6X0o-193" value="" style="endArrow=blockThin;html=1;rounded=0;exitX=0.5;exitY=1;exitDx=0;exitDy=0;endFill=1;" edge="1" parent="WIyWlLk6GJQsqaUBKTNV-1" source="X3-Z9v7MCHhHsnZY6X0o-182">
          <mxGeometry width="50" height="50" relative="1" as="geometry">
            <mxPoint x="150" y="700" as="sourcePoint" />
            <mxPoint x="150" y="730" as="targetPoint" />
          </mxGeometry>
        </mxCell>
        <mxCell id="X3-Z9v7MCHhHsnZY6X0o-194" value="" style="endArrow=blockThin;html=1;rounded=0;exitX=0.5;exitY=1;exitDx=0;exitDy=0;endFill=1;" edge="1" parent="WIyWlLk6GJQsqaUBKTNV-1" source="X3-Z9v7MCHhHsnZY6X0o-183">
          <mxGeometry width="50" height="50" relative="1" as="geometry">
            <mxPoint x="240" y="670" as="sourcePoint" />
            <mxPoint x="249.82999999999998" y="729.62" as="targetPoint" />
          </mxGeometry>
        </mxCell>
        <mxCell id="X3-Z9v7MCHhHsnZY6X0o-196" value="读出页" style="text;html=1;align=center;verticalAlign=middle;whiteSpace=wrap;rounded=0;fontSize=6;fontStyle=1" vertex="1" parent="WIyWlLk6GJQsqaUBKTNV-1">
          <mxGeometry x="130" y="725.6200000000001" width="40" height="24.38" as="geometry" />
        </mxCell>
        <mxCell id="X3-Z9v7MCHhHsnZY6X0o-197" value="读出页" style="text;html=1;align=center;verticalAlign=middle;whiteSpace=wrap;rounded=0;fontSize=6;fontStyle=1" vertex="1" parent="WIyWlLk6GJQsqaUBKTNV-1">
          <mxGeometry x="230" y="725.6200000000001" width="40" height="24.38" as="geometry" />
        </mxCell>
        <mxCell id="X3-Z9v7MCHhHsnZY6X0o-198" value="" style="endArrow=blockThin;html=1;rounded=0;endFill=1;exitX=0.5;exitY=0;exitDx=0;exitDy=0;" edge="1" parent="WIyWlLk6GJQsqaUBKTNV-1" source="X3-Z9v7MCHhHsnZY6X0o-171">
          <mxGeometry width="50" height="50" relative="1" as="geometry">
            <mxPoint x="340" y="670" as="sourcePoint" />
            <mxPoint x="370" y="660" as="targetPoint" />
          </mxGeometry>
        </mxCell>
        <mxCell id="X3-Z9v7MCHhHsnZY6X0o-199" value="处理端口n&lt;br&gt;请求一页" style="text;html=1;align=center;verticalAlign=middle;whiteSpace=wrap;rounded=0;fontSize=6;fontStyle=1" vertex="1" parent="WIyWlLk6GJQsqaUBKTNV-1">
          <mxGeometry x="330" y="635.62" width="40" height="24.38" as="geometry" />
        </mxCell>
        <mxCell id="X3-Z9v7MCHhHsnZY6X0o-200" value="" style="endArrow=blockThin;html=1;rounded=0;exitX=0.5;exitY=1;exitDx=0;exitDy=0;endFill=1;" edge="1" parent="WIyWlLk6GJQsqaUBKTNV-1" source="X3-Z9v7MCHhHsnZY6X0o-199">
          <mxGeometry width="50" height="50" relative="1" as="geometry">
            <mxPoint x="340" y="670.62" as="sourcePoint" />
            <mxPoint x="349.83" y="730.24" as="targetPoint" />
          </mxGeometry>
        </mxCell>
        <mxCell id="X3-Z9v7MCHhHsnZY6X0o-201" value="读出页" style="text;html=1;align=center;verticalAlign=middle;whiteSpace=wrap;rounded=0;fontSize=6;fontStyle=1" vertex="1" parent="WIyWlLk6GJQsqaUBKTNV-1">
          <mxGeometry x="330" y="725.6200000000002" width="40" height="24.38" as="geometry" />
        </mxCell>
        <mxCell id="X3-Z9v7MCHhHsnZY6X0o-202" value="……" style="text;html=1;align=center;verticalAlign=middle;whiteSpace=wrap;rounded=0;fontSize=9;fontStyle=1" vertex="1" parent="WIyWlLk6GJQsqaUBKTNV-1">
          <mxGeometry x="366" y="635.62" width="40" height="40.93" as="geometry" />
        </mxCell>
      </root>
    </mxGraphModel>
  </diagram>
</mxfile>
